<svg baseProfile="tiny" height="1080" version="1.2" width="1920" xmlns="http://www.w3.org/2000/svg" xmlns:ev="http://www.w3.org/2001/xml-events" xmlns:xlink="http://www.w3.org/1999/xlink"><defs /><rect fill="rgb(255,255,255)" height="1080" width="1920" x="0" y="0" /><text fill="rgb(13,14,15)" font-size="42px" font-weight="bold" x="25" y="50">dark</text><rect fill="rgb(13,14,15)" height="180" width="480" x="0" y="180" /><text fill="rgb(255,255,255)" font-size="28px" x="25" y="215">dark0</text><text fill="rgb(255,255,255)" font-size="28px" x="25" y="345">#0d0e0f</text><rect fill="rgb(13,14,15)" height="180" width="480" x="0" y="360" /><text fill="rgb(255,255,255)" font-size="28px" x="25" y="395">dark</text><text fill="rgb(255,255,255)" font-size="28px" x="25" y="525">#0d0e0f</text><rect fill="rgb(23,26,26)" height="180" width="480" x="0" y="540" /><text fill="rgb(255,255,255)" font-size="28px" x="25" y="575">background dark</text><text fill="rgb(255,255,255)" font-size="28px" x="25" y="705">#171a1a</text><rect fill="rgb(29,32,33)" height="180" width="480" x="0" y="720" /><text fill="rgb(255,255,255)" font-size="28px" x="25" y="755">background</text><text fill="rgb(255,255,255)" font-size="28px" x="25" y="885">#1d2021</text><rect fill="rgb(50,48,47)" height="180" width="480" x="0" y="900" /><text fill="rgb(255,255,255)" font-size="28px" x="25" y="935">background light</text><text fill="rgb(255,255,255)" font-size="28px" x="25" y="1065">#32302f</text><text fill="rgb(13,14,15)" font-size="42px" font-weight="bold" x="505" y="50">medium</text><rect fill="rgb(13,14,15)" height="180" width="480" x="480" y="180" /><text fill="rgb(255,255,255)" font-size="28px" x="505" y="215">dark0</text><text fill="rgb(255,255,255)" font-size="28px" x="505" y="345">#0d0e0f</text><rect fill="rgb(32,32,32)" height="180" width="480" x="480" y="360" /><text fill="rgb(255,255,255)" font-size="28px" x="505" y="395">dark</text><text fill="rgb(255,255,255)" font-size="28px" x="505" y="525">#202020</text><rect fill="rgb(36,36,36)" height="180" width="480" x="480" y="540" /><text fill="rgb(255,255,255)" font-size="28px" x="505" y="575">background dark</text><text fill="rgb(255,255,255)" font-size="28px" x="505" y="705">#242424</text><rect fill="rgb(40,40,40)" height="180" width="480" x="480" y="720" /><text fill="rgb(255,255,255)" font-size="28px" x="505" y="755">background</text><text fill="rgb(255,255,255)" font-size="28px" x="505" y="885">#282828</text><rect fill="rgb(50,48,47)" height="180" width="480" x="480" y="900" /><text fill="rgb(255,255,255)" font-size="28px" x="505" y="935">background light</text><text fill="rgb(255,255,255)" font-size="28px" x="505" y="1065">#32302f</text><text fill="rgb(13,14,15)" font-size="42px" font-weight="bold" x="985" y="50">soft</text><rect fill="rgb(13,14,15)" height="180" width="480" x="960" y="180" /><text fill="rgb(255,255,255)" font-size="28px" x="985" y="215">dark0</text><text fill="rgb(255,255,255)" font-size="28px" x="985" y="345">#0d0e0f</text><rect fill="rgb(32,32,32)" height="180" width="480" x="960" y="360" /><text fill="rgb(255,255,255)" font-size="28px" x="985" y="395">dark</text><text fill="rgb(255,255,255)" font-size="28px" x="985" y="525">#202020</text><rect fill="rgb(40,38,38)" height="180" width="480" x="960" y="540" /><text fill="rgb(255,255,255)" font-size="28px" x="985" y="575">background dark</text><text fill="rgb(255,255,255)" font-size="28px" x="985" y="705">#282626</text><rect fill="rgb(50,48,47)" height="180" width="480" x="960" y="720" /><text fill="rgb(255,255,255)" font-size="28px" x="985" y="755">background</text><text fill="rgb(255,255,255)" font-size="28px" x="985" y="885">#32302f</text><rect fill="rgb(60,58,57)" height="180" width="480" x="960" y="900" /><text fill="rgb(255,255,255)" font-size="28px" x="985" y="935">background light</text><text fill="rgb(255,255,255)" font-size="28px" x="985" y="1065">#3c3a39</text><text fill="rgb(13,14,15)" font-size="42px" font-weight="bold" x="1465" y="50">soft flat</text><rect fill="rgb(13,14,15)" height="180" width="480" x="1440" y="180" /><text fill="rgb(255,255,255)" font-size="28px" x="1465" y="215">dark0</text><text fill="rgb(255,255,255)" font-size="28px" x="1465" y="345">#0d0e0f</text><rect fill="rgb(32,32,32)" height="180" width="480" x="1440" y="360" /><text fill="rgb(255,255,255)" font-size="28px" x="1465" y="395">dark</text><text fill="rgb(255,255,255)" font-size="28px" x="1465" y="525">#202020</text><rect fill="rgb(50,48,47)" height="180" width="480" x="1440" y="540" /><text fill="rgb(255,255,255)" font-size="28px" x="1465" y="575">background dark</text><text fill="rgb(255,255,255)" font-size="28px" x="1465" y="705">#32302f</text><rect fill="rgb(50,48,47)" height="180" width="480" x="1440" y="720" /><text fill="rgb(255,255,255)" font-size="28px" x="1465" y="755">background</text><text fill="rgb(255,255,255)" font-size="28px" x="1465" y="885">#32302f</text><rect fill="rgb(60,58,57)" height="180" width="480" x="1440" y="900" /><text fill="rgb(255,255,255)" font-size="28px" x="1465" y="935">background light</text><text fill="rgb(255,255,255)" font-size="28px" x="1465" y="1065">#3c3a39</text></svg>