<svg baseProfile="tiny" height="1080" version="1.2" width="1920" xmlns="http://www.w3.org/2000/svg" xmlns:ev="http://www.w3.org/2001/xml-events" xmlns:xlink="http://www.w3.org/1999/xlink"><defs /><rect fill="rgb(50,48,47)" height="1080" width="1920" x="0" y="0" /><rect fill="rgb(13,14,15)" height="160" rx="20" ry="20" stroke="rgb(102,92,84)" stroke-width="5" width="280" x="80" y="45" /><text fill="rgb(231,215,173)" font-size="28px" font-weight="bold" x="105" y="80">dark0</text><text fill="rgb(231,215,173)" font-size="28px" x="105" y="190">#0d0e0f</text><rect fill="rgb(32,32,32)" height="160" rx="20" ry="20" stroke="rgb(102,92,84)" stroke-width="5" width="280" x="440" y="45" /><text fill="rgb(231,215,173)" font-size="28px" font-weight="bold" x="465" y="80">dark</text><text fill="rgb(231,215,173)" font-size="28px" x="465" y="190">#202020</text><rect fill="rgb(50,48,47)" height="160" rx="20" ry="20" stroke="rgb(102,92,84)" stroke-width="5" width="280" x="800" y="45" /><text fill="rgb(231,215,173)" font-size="28px" font-weight="bold" x="825" y="80">background dark</text><text fill="rgb(231,215,173)" font-size="28px" x="825" y="190">#32302f</text><rect fill="rgb(50,48,47)" height="160" rx="20" ry="20" stroke="rgb(102,92,84)" stroke-width="5" width="280" x="1160" y="45" /><text fill="rgb(231,215,173)" font-size="28px" font-weight="bold" x="1185" y="80">background</text><text fill="rgb(231,215,173)" font-size="28px" x="1185" y="190">#32302f</text><rect fill="rgb(60,58,57)" height="160" rx="20" ry="20" stroke="rgb(102,92,84)" stroke-width="5" width="280" x="1520" y="45" /><text fill="rgb(231,215,173)" font-size="28px" font-weight="bold" x="1545" y="80">background light</text><text fill="rgb(231,215,173)" font-size="28px" x="1545" y="190">#3c3a39</text><rect fill="rgb(235,219,178)" height="160" rx="20" ry="20" stroke="rgb(102,92,84)" stroke-width="5" width="280" x="80" y="250" /><text fill="rgb(50,48,47)" font-size="28px" font-weight="bold" x="105" y="285">foreground</text><text fill="rgb(50,48,47)" font-size="28px" x="105" y="395">#ebdbb2</text><rect fill="rgb(222,222,222)" height="160" rx="20" ry="20" stroke="rgb(102,92,84)" stroke-width="5" width="280" x="440" y="250" /><text fill="rgb(50,48,47)" font-size="28px" font-weight="bold" x="465" y="285">gray</text><text fill="rgb(50,48,47)" font-size="28px" x="465" y="395">#dedede</text><rect fill="rgb(80,73,69)" height="160" rx="20" ry="20" stroke="rgb(102,92,84)" stroke-width="5" width="280" x="800" y="250" /><text fill="rgb(50,48,47)" font-size="28px" font-weight="bold" x="825" y="285">medium gray</text><text fill="rgb(50,48,47)" font-size="28px" x="825" y="395">#504945</text><rect fill="rgb(102,92,84)" height="160" rx="20" ry="20" stroke="rgb(102,92,84)" stroke-width="5" width="280" x="1160" y="250" /><text fill="rgb(50,48,47)" font-size="28px" font-weight="bold" x="1185" y="285">comment</text><text fill="rgb(50,48,47)" font-size="28px" x="1185" y="395">#665c54</text><rect fill="rgb(231,215,173)" height="160" rx="20" ry="20" stroke="rgb(102,92,84)" stroke-width="5" width="280" x="1520" y="250" /><text fill="rgb(50,48,47)" font-size="28px" font-weight="bold" x="1545" y="285">milk</text><text fill="rgb(50,48,47)" font-size="28px" x="1545" y="395">#e7d7ad</text><rect fill="rgb(204,36,29)" height="160" rx="20" ry="20" stroke="rgb(102,92,84)" stroke-width="5" width="280" x="80" y="455" /><text fill="rgb(50,48,47)" font-size="28px" font-weight="bold" x="105" y="490">error red</text><text fill="rgb(50,48,47)" font-size="28px" x="105" y="600">#cc241d</text><rect fill="rgb(251,73,52)" height="160" rx="20" ry="20" stroke="rgb(102,92,84)" stroke-width="5" width="280" x="440" y="455" /><text fill="rgb(50,48,47)" font-size="28px" font-weight="bold" x="465" y="490">red</text><text fill="rgb(50,48,47)" font-size="28px" x="465" y="600">#fb4934</text><rect fill="rgb(214,93,14)" height="160" rx="20" ry="20" stroke="rgb(102,92,84)" stroke-width="5" width="280" x="800" y="455" /><text fill="rgb(50,48,47)" font-size="28px" font-weight="bold" x="825" y="490">orange</text><text fill="rgb(50,48,47)" font-size="28px" x="825" y="600">#d65d0e</text><rect fill="rgb(250,189,47)" height="160" rx="20" ry="20" stroke="rgb(102,92,84)" stroke-width="5" width="280" x="1160" y="455" /><text fill="rgb(50,48,47)" font-size="28px" font-weight="bold" x="1185" y="490">bright yellow</text><text fill="rgb(50,48,47)" font-size="28px" x="1185" y="600">#fabd2f</text><rect fill="rgb(238,189,53)" height="160" rx="20" ry="20" stroke="rgb(102,92,84)" stroke-width="5" width="280" x="1520" y="455" /><text fill="rgb(50,48,47)" font-size="28px" font-weight="bold" x="1545" y="490">soft yellow</text><text fill="rgb(50,48,47)" font-size="28px" x="1545" y="600">#eebd35</text><rect fill="rgb(212,135,156)" height="160" rx="20" ry="20" stroke="rgb(102,92,84)" stroke-width="5" width="280" x="80" y="660" /><text fill="rgb(50,48,47)" font-size="28px" font-weight="bold" x="105" y="695">pink</text><text fill="rgb(50,48,47)" font-size="28px" x="105" y="805">#d4879c</text><rect fill="rgb(177,98,134)" height="160" rx="20" ry="20" stroke="rgb(102,92,84)" stroke-width="5" width="280" x="440" y="660" /><text fill="rgb(50,48,47)" font-size="28px" font-weight="bold" x="465" y="695">magenta</text><text fill="rgb(50,48,47)" font-size="28px" x="465" y="805">#b16286</text><rect fill="rgb(152,151,26)" height="160" rx="20" ry="20" stroke="rgb(102,92,84)" stroke-width="5" width="280" x="800" y="660" /><text fill="rgb(50,48,47)" font-size="28px" font-weight="bold" x="825" y="695">soft green</text><text fill="rgb(50,48,47)" font-size="28px" x="825" y="805">#98971a</text><rect fill="rgb(104,157,106)" height="160" rx="20" ry="20" stroke="rgb(102,92,84)" stroke-width="5" width="280" x="1160" y="660" /><text fill="rgb(50,48,47)" font-size="28px" font-weight="bold" x="1185" y="695">forest green</text><text fill="rgb(50,48,47)" font-size="28px" x="1185" y="805">#689d6a</text><rect fill="rgb(142,192,124)" height="160" rx="20" ry="20" stroke="rgb(102,92,84)" stroke-width="5" width="280" x="1520" y="660" /><text fill="rgb(50,48,47)" font-size="28px" font-weight="bold" x="1545" y="695">clean green</text><text fill="rgb(50,48,47)" font-size="28px" x="1545" y="805">#8ec07c</text><rect fill="rgb(69,133,136)" height="160" rx="20" ry="20" stroke="rgb(102,92,84)" stroke-width="5" width="280" x="80" y="865" /><text fill="rgb(50,48,47)" font-size="28px" font-weight="bold" x="105" y="900">blue gray</text><text fill="rgb(50,48,47)" font-size="28px" x="105" y="1010">#458588</text><rect fill="rgb(131,165,152)" height="160" rx="20" ry="20" stroke="rgb(102,92,84)" stroke-width="5" width="280" x="440" y="865" /><text fill="rgb(50,48,47)" font-size="28px" font-weight="bold" x="465" y="900">dark gray</text><text fill="rgb(50,48,47)" font-size="28px" x="465" y="1010">#83a598</text><rect fill="rgb(127,162,172)" height="160" rx="20" ry="20" stroke="rgb(102,92,84)" stroke-width="5" width="280" x="800" y="865" /><text fill="rgb(50,48,47)" font-size="28px" font-weight="bold" x="825" y="900">light blue</text><text fill="rgb(50,48,47)" font-size="28px" x="825" y="1010">#7fa2ac</text><text fill="#e7d7ad" font-size="96px" font-weight="bold" x="1185" y="985.0">soft_flat</text></svg>